<?xml version="1.0" encoding="utf-8"?>
<!-- Generator: Adobe Illustrator 27.0.0, SVG Export Plug-In . SVG Version: 6.00 Build 0)  -->
<svg version="1.1" xmlns="http://www.w3.org/2000/svg" xmlns:xlink="http://www.w3.org/1999/xlink" x="0px" y="0px"
	 viewBox="0 0 349.2 141.8" style="enable-background:new 0 0 349.2 141.8;" xml:space="preserve">
<style type="text/css">
	.st0{fill:#FB611F;}
	.st1{fill:#07293E;}
	.st2{clip-path:url(#SVGID_00000126282699506747427680000017904566592821000892_);}
	.st3{fill:#FFFFFF;}
	.st4{clip-path:url(#SVGID_00000126282699506747427680000017904566592821000892_);fill:#FB611F;}
	.st5{fill:#35B3F1;}
	.st6{font-family:'Montserrat-ExtraBold';}
	.st7{font-size:39.8969px;}
	.st8{font-family:'Montserrat-Medium';}
	.st9{font-size:21.7106px;}
	.st10{letter-spacing:1;}
</style>
<g id="BACKGROUND">
</g>
<g id="OBJECTS">
	<g>
		<path class="st0" d="M87,78.1H29.5V44.6c0-4.3,3.5-7.8,7.8-7.8h42c4.3,0,7.8,3.5,7.8,7.8V78.1z"/>
		<path class="st1" d="M70.2,40.6L70.2,40.6c-0.8,0-1.4-0.6-1.4-1.4V32c0-5.6-4.2-10.5-9.8-10.9c-6.1-0.4-11.3,4.5-11.3,10.5v7.6
			c0,0.8-0.6,1.4-1.4,1.4l0,0c-0.8,0-1.4-0.6-1.4-1.4V32c0-7,5.2-13.1,12.1-13.7c8-0.7,14.7,5.5,14.7,13.3v7.6
			C71.6,40,71,40.6,70.2,40.6z"/>
	</g>
	<g>
		<defs>
			<polygon id="SVGID_1_" points="22.6,84.3 46.9,58.3 70.7,82.6 92,58.3 92,127.9 22.6,127.9 			"/>
		</defs>
		<clipPath id="SVGID_00000085935188300616692840000007338629933917472904_">
			<use xlink:href="#SVGID_1_"  style="overflow:visible;"/>
		</clipPath>
		<g style="clip-path:url(#SVGID_00000085935188300616692840000007338629933917472904_);">
			<path class="st1" d="M72.1,123.3H44.4c-8.2,0-14.9-6.7-14.9-14.9V33.1c0-8.2,6.7-14.9,14.9-14.9h27.8c8.2,0,14.9,6.7,14.9,14.9
				v75.4C87,116.7,80.3,123.3,72.1,123.3z"/>
			<path class="st3" d="M65.2,25.3H51.3c-0.8,0-1.4-0.6-1.4-1.4l0,0c0-0.8,0.6-1.4,1.4-1.4h13.9c0.8,0,1.4,0.6,1.4,1.4l0,0
				C66.6,24.7,66,25.3,65.2,25.3z"/>
			<rect x="33.4" y="29.5" class="st3" width="49.8" height="82.9"/>
		</g>
		<path style="clip-path:url(#SVGID_00000085935188300616692840000007338629933917472904_);fill:#FB611F;" d="M60.7,116.9l-1.5-1.5
			c-0.5-0.5-1.3-0.5-1.8,0l-1.5,1.5c-0.5,0.5-0.5,1.3,0,1.8l1.5,1.5c0.5,0.5,1.3,0.5,1.8,0l1.5-1.5
			C61.2,118.3,61.2,117.5,60.7,116.9z"/>
	</g>
	<g>
		<path class="st3" d="M23.9,91.1c-2.5,0-4.8-1.1-6.5-3c-1.6-1.9-2.3-4.4-2-6.9c0.5-3.5,3.2-6.3,6.7-7c0.6-0.1,1.1-0.2,1.7-0.2
			c0.6,0,1.2,0.1,1.7,0.2L38.6,61c-0.2-0.7-0.3-1.4-0.3-2.1c0-4.7,3.8-8.5,8.5-8.5c0.3,0,0.6,0,0.9,0c3.7,0.4,6.8,3.2,7.5,6.9
			c0.2,1.2,0.2,2.4-0.1,3.5c3.1,3.2,8.7,9,12.9,13.3c0.6-0.1,1.2-0.2,1.8-0.2c0.6,0,1.2,0.1,1.8,0.2C75.8,70,81.4,64.2,84.5,61
			c-0.3-1.2-0.3-2.4-0.1-3.5c0.6-3.6,3.5-6.3,7-6.9c0.5-0.1,0.9-0.1,1.4-0.1c2.5,0,4.8,1.1,6.5,3c1.6,1.9,2.3,4.4,2,6.9
			c-0.5,3.5-3.3,6.4-6.8,7c-0.5,0.1-1.1,0.2-1.6,0.2c-0.6,0-1.2-0.1-1.8-0.2c-1.9,2-4.1,4.3-6.3,6.6c-2.3,2.4-4.6,4.7-6.5,6.7
			c0.2,0.7,0.3,1.4,0.3,2c0,4.7-3.8,8.5-8.5,8.5c-0.3,0-0.6,0-0.9,0c-3.8-0.4-6.8-3.3-7.5-7c-0.2-1.2-0.2-2.4,0.1-3.5
			c-1.9-2-4.2-4.3-6.5-6.7c-2.2-2.3-4.5-4.6-6.3-6.6c-0.6,0.1-1.2,0.2-1.8,0.2c-0.6,0-1.2-0.1-1.8-0.2L32.2,80.5
			c0.3,1.2,0.3,2.4,0.1,3.5c-0.6,3.6-3.4,6.4-7,7C24.9,91.1,24.4,91.1,23.9,91.1z"/>
		<path class="st5" d="M86.9,57.9c-0.2,0.9-0.1,1.8,0.1,2.6c0.2,0.8,0,1.6-0.5,2.1c-4.6,4.8-9.7,10-13.2,13.7
			c-0.6,0.6-1.4,0.8-2.1,0.6c-0.4-0.1-0.9-0.2-1.4-0.2c-0.5,0-0.9,0.1-1.3,0.2c-0.8,0.2-1.6,0-2.1-0.6c-3.5-3.7-8.6-8.9-13.2-13.7
			c-0.5-0.6-0.7-1.4-0.5-2.1c0.2-0.8,0.3-1.7,0.1-2.6c-0.5-2.6-2.6-4.5-5.2-4.8C44,52.7,41,55.5,41,58.9c0,0.6,0.1,1.1,0.2,1.6
			c0.2,0.8,0,1.6-0.6,2.1L27.4,76.3c-0.5,0.6-1.3,0.7-2.1,0.6c-0.8-0.2-1.6-0.2-2.5,0c-2.4,0.5-4.3,2.4-4.7,4.9
			c-0.6,4,2.8,7.4,6.8,6.8c2.5-0.4,4.4-2.4,4.8-4.8c0.2-0.9,0.1-1.8-0.1-2.6c-0.2-0.8,0-1.6,0.5-2.2l13.2-13.6
			c0.6-0.6,1.4-0.8,2.1-0.6c0.4,0.1,0.9,0.2,1.3,0.2c0.5,0,0.9-0.1,1.4-0.2c0.8-0.2,1.6,0,2.2,0.6c1.9,2,4.2,4.4,6.5,6.8
			c2.3,2.4,4.7,4.9,6.6,6.9c0.6,0.6,0.7,1.4,0.5,2.2c-0.2,0.8-0.3,1.7-0.1,2.6c0.4,2.6,2.6,4.6,5.2,4.8c3.6,0.4,6.6-2.4,6.6-5.9
			c0-0.5-0.1-1.1-0.2-1.6c-0.2-0.8,0-1.6,0.5-2.1c2-2,4.3-4.5,6.7-6.9c2.3-2.4,4.6-4.8,6.5-6.8c0.5-0.6,1.3-0.8,2.1-0.6
			c0.8,0.2,1.6,0.2,2.5,0.1c2.4-0.5,4.3-2.4,4.7-4.9c0.6-4-2.8-7.4-6.8-6.8C89.3,53.5,87.3,55.4,86.9,57.9z"/>
	</g>
</g>
<g id="TEXTS">
	<g>
		<g>
			<text transform="matrix(1.0008 0 0 1 112.8631 85.2981)" class="st1 st6 st7">COMPANY</text>
		</g>
		<g>
			<text transform="matrix(1.0008 0 0 1 168.5364 112.6897)" class="st5 st8 st9 st10">TAGLINE</text>
		</g>
	</g>
</g>
</svg>
