<?xml version="1.0" encoding="UTF-8"?>
<svg xmlns="http://www.w3.org/2000/svg" width="209" height="47" viewBox="0 0 209 47" fill="none">
  <g clip-path="url(#clip0_660_896)">
    <path fill-rule="evenodd" clip-rule="evenodd" d="M6.20706 39.3903C8.57403 41.9616 11.4859 43.9753 14.7311 45.2851C17.9763 46.5948 21.4734 47.1678 24.9685 46.9623C28.4636 46.7569 31.8689 45.7782 34.9372 44.0973C38.0055 42.4165 40.6596 40.0756 42.7069 37.2448C44.7543 34.4139 46.1433 31.1642 46.7733 27.7315C47.4033 24.2988 47.2583 20.7694 46.349 17.3995C45.4396 14.0296 43.7887 10.9039 41.5161 8.24929C39.2435 5.59471 36.4062 3.47791 33.2104 2.05261C21.748 11.1242 11.4008 23.2997 6.20706 39.3903Z" fill="#FF8C00"></path>
    <path d="M23.5866 7.57517e-06C19.0684 -0.00360827 14.6444 1.28731 10.8416 3.71898C7.03877 6.15066 4.01737 9.62059 2.13731 13.7155C0.257236 17.8104 -0.402255 22.3576 0.237385 26.8155C0.877024 31.2734 2.78883 35.4541 5.74509 38.8596C8.22862 24.3562 14.8558 10.8744 24.8323 0.0300485C24.4204 0.010023 24.0085 7.57517e-06 23.5866 7.57517e-06Z" fill="#0062BE"></path>
    <path d="M75.1494 17.8647C74.0775 21.8893 72.7796 25.8506 71.2617 29.7299C69.7682 33.5147 68.3283 36.9057 66.9419 39.9029H63.3656C61.9793 36.9057 60.5394 33.5147 59.0459 29.7299C57.528 25.8506 56.23 21.8893 55.1581 17.8647H59.4075C59.7491 19.2465 60.1509 20.7184 60.6231 22.2904C61.0952 23.8624 61.6277 25.4144 62.1099 26.9563C62.5921 28.4983 63.1145 29.9602 63.7072 31.4321C64.2999 32.9039 64.7117 34.1555 65.2341 35.287C65.7163 34.1555 66.2387 32.8739 66.7712 31.4321C67.3036 29.9902 67.836 28.4983 68.3684 26.9563C68.9009 25.4144 69.373 23.8624 69.8552 22.2904C70.3374 20.7184 70.7292 19.2866 71.0708 17.8647H75.1494Z" fill="#FF8C00"></path>
    <path d="M81.177 13.8696C80.5071 13.8819 79.8587 13.6342 79.3687 13.1788C79.1189 12.9327 78.9237 12.6371 78.7956 12.3111C78.6676 11.9852 78.6096 11.636 78.6253 11.2863C78.6085 10.938 78.666 10.5901 78.7942 10.2656C78.9223 9.94105 79.1181 9.64736 79.3687 9.40393C79.8547 8.94116 80.5049 8.68915 81.177 8.70304C81.5099 8.69451 81.8413 8.75208 82.1517 8.87241C82.4622 8.99274 82.7455 9.17342 82.9852 9.40393C83.2374 9.64618 83.4342 9.93967 83.5625 10.2645C83.6908 10.5893 83.7474 10.9378 83.7286 11.2863C83.7469 11.6363 83.6901 11.9862 83.5619 12.3125C83.4337 12.6389 83.2371 12.9342 82.9852 13.1788C82.4976 13.6379 81.8476 13.8862 81.177 13.8696ZM83.1861 39.9029H79.2381V17.8747H83.1861V39.9029Z" fill="#FF8C00"></path>
    <path d="M97.1499 17.304C98.5158 17.2695 99.8769 17.4798 101.168 17.9248C102.177 18.2792 103.084 18.8738 103.81 19.657C104.505 20.4213 105.011 21.3368 105.287 22.3304C105.579 23.4449 105.721 24.5931 105.709 25.7448V39.5224L104.282 39.7627C103.68 39.8628 102.987 39.9529 102.273 40.033C101.56 40.1131 100.676 40.1932 99.7819 40.2633C98.8879 40.3334 98.0038 40.3735 97.1298 40.3735C95.9702 40.3825 94.8136 40.2548 93.6841 39.993C92.7051 39.7726 91.7798 39.3608 90.9617 38.7814C90.1438 38.2352 89.4909 37.4771 89.073 36.5886C88.6172 35.562 88.3976 34.4467 88.4301 33.3245C88.4017 32.2333 88.6578 31.1534 89.1735 30.1905C89.658 29.3291 90.3481 28.6 91.1827 28.0677C92.1111 27.5009 93.1306 27.0978 94.1964 26.8762C95.371 26.6196 96.5703 26.492 97.7728 26.4957C98.1823 26.495 98.5916 26.5184 98.9984 26.5658C99.4303 26.5658 99.8322 26.666 100.214 26.7361L101.218 26.9263L101.811 27.0464V25.945C101.812 25.2985 101.741 24.6538 101.6 24.0226C101.468 23.4065 101.204 22.826 100.827 22.3204C100.436 21.803 99.9164 21.3958 99.3198 21.1389C98.5324 20.8091 97.682 20.6553 96.8284 20.6883C95.6803 20.674 94.5333 20.7679 93.4028 20.9687C92.6583 21.0977 91.9281 21.2989 91.2228 21.5695L90.7607 18.3053C91.5837 17.9902 92.4396 17.7685 93.3124 17.6444C94.5793 17.4205 95.8633 17.3066 97.1499 17.304ZM97.4915 37.0692C98.4257 37.0692 99.2596 37.0692 99.9829 36.9992C100.591 36.9726 101.196 36.8955 101.791 36.7689V30.2005C101.348 30.0161 100.882 29.8947 100.405 29.84C99.6363 29.7304 98.8604 29.6802 98.0842 29.6898C97.4524 29.6907 96.8214 29.7342 96.1956 29.82C95.5605 29.8932 94.9424 30.0726 94.3672 30.3507C93.825 30.6046 93.3501 30.9819 92.9809 31.4521C92.5936 31.9865 92.3988 32.6358 92.4283 33.2944C92.3673 33.8624 92.4621 34.4363 92.7027 34.9548C92.9434 35.4732 93.3207 35.9168 93.7946 36.2382C94.9274 36.8472 96.2061 37.1346 97.4915 37.0692Z" fill="#FF8C00"></path>
    <path d="M120.848 7.00089C121.703 6.99135 122.557 7.05838 123.4 7.20115C123.917 7.27852 124.428 7.39568 124.927 7.55159L124.374 10.9459C123.955 10.8045 123.529 10.6842 123.098 10.5855C122.458 10.451 121.804 10.3872 121.15 10.3952C119.301 10.3952 118.015 10.8959 117.272 11.9072C116.489 13.0926 116.102 14.4945 116.167 15.9123V17.8648H124.676V21.169H116.167V39.9029H112.209V15.8722C112.06 13.4979 112.817 11.1553 114.328 9.31384C115.668 7.77187 117.841 7.00089 120.848 7.00089ZM130.763 13.8697C130.093 13.8862 129.443 13.6379 128.955 13.1788C128.702 12.9347 128.504 12.6397 128.374 12.3134C128.244 11.9871 128.185 11.637 128.202 11.2864C128.184 10.9371 128.242 10.5881 128.372 10.2633C128.502 9.93841 128.701 9.64532 128.955 9.40396C129.195 9.17345 129.478 8.99277 129.789 8.87244C130.099 8.75211 130.43 8.69454 130.763 8.70307C131.435 8.68918 132.086 8.94119 132.572 9.40396C132.822 9.64739 133.018 9.94108 133.146 10.2656C133.274 10.5901 133.332 10.938 133.315 11.2864C133.331 11.6361 133.273 11.9852 133.145 12.3111C133.017 12.6371 132.821 12.9327 132.572 13.1788C132.082 13.6342 131.433 13.8819 130.763 13.8697ZM132.773 39.9029H128.815V17.8748H132.773V39.9029Z" fill="#0062BE"></path>
    <path d="M147.731 17.3941C148.072 17.3941 148.464 17.4142 148.906 17.4542C149.338 17.4542 149.77 17.5543 150.202 17.6244L151.368 17.8347C151.719 17.9048 151.99 17.9749 152.151 18.0249L151.498 21.4593C150.986 21.2987 150.467 21.165 149.941 21.0588C149.023 20.8897 148.091 20.8126 147.158 20.8285C146.422 20.8298 145.688 20.907 144.968 21.0588C144.245 21.219 143.763 21.3191 143.542 21.3792V39.9029H139.584V18.7959C140.722 18.3852 141.887 18.0507 143.07 17.7946C144.606 17.5033 146.168 17.3691 147.731 17.3941Z" fill="#0062BE"></path>
    <path d="M155.979 18.4956C156.893 18.2653 158.088 18.0249 159.575 17.7746C161.286 17.5061 163.017 17.3788 164.749 17.3941C165.966 17.3607 167.179 17.5542 168.325 17.9649C169.252 18.3257 170.081 18.8985 170.746 19.637C170.947 19.4968 171.258 19.2966 171.68 19.0463C172.185 18.7567 172.712 18.5089 173.258 18.3053C173.937 18.0492 174.631 17.8352 175.337 17.6645C176.147 17.479 176.977 17.3883 177.808 17.3941C179.235 17.3455 180.656 17.598 181.977 18.1351C183.003 18.5848 183.88 19.3136 184.509 20.2378C185.14 21.212 185.561 22.3066 185.745 23.4519C185.964 24.8158 186.069 26.1958 186.056 27.5771V39.9029H182.098V28.3782C182.11 27.2571 182.047 26.1364 181.907 25.0239C181.823 24.2062 181.577 23.4133 181.184 22.6909C180.86 22.0958 180.358 21.6163 179.747 21.3192C179.001 20.9924 178.191 20.8384 177.376 20.8686C176.254 20.8351 175.136 21.0152 174.081 21.3993C173.446 21.6379 172.852 21.9759 172.323 22.4005C172.557 23.1931 172.725 24.0035 172.826 24.8236C172.945 25.7365 173.002 26.6565 172.996 27.5771V39.9029H169.038V28.3782C169.05 27.2564 168.98 26.1353 168.827 25.0239C168.723 24.2078 168.471 23.4174 168.084 22.6909C167.758 22.0935 167.252 21.6135 166.637 21.3192C165.909 20.9938 165.115 20.8397 164.317 20.8686C163.925 20.8686 163.503 20.8686 163.041 20.8686L161.745 20.9787C161.333 20.9787 160.961 21.0688 160.62 21.1289L159.937 21.2491V39.9029H155.979V18.4956Z" fill="#0062BE"></path>
    <path d="M199.718 17.3041C201.084 17.2702 202.445 17.4805 203.737 17.9249C204.724 18.264 205.609 18.8453 206.311 19.6152C207.014 20.3852 207.51 21.319 207.755 22.3305C208.055 23.4435 208.2 24.5924 208.187 25.7448V39.5224L206.761 39.7627C206.148 39.8629 205.465 39.953 204.691 40.0331C203.918 40.1132 203.104 40.1933 202.21 40.2634C201.316 40.3335 200.432 40.3735 199.548 40.3735C198.388 40.3819 197.231 40.2542 196.102 39.993C195.124 39.7707 194.199 39.359 193.379 38.7815C192.637 38.2051 192.053 37.4507 191.682 36.5887C191.234 35.5596 191.018 34.4456 191.049 33.3245C191.016 32.2329 191.272 31.1518 191.792 30.1905C192.271 29.3251 192.962 28.5948 193.801 28.0678C194.729 27.4999 195.749 27.0967 196.815 26.8763C197.99 26.6202 199.189 26.4926 200.391 26.4958C200.804 26.4948 201.217 26.5182 201.627 26.5659C202.049 26.5659 202.451 26.666 202.843 26.7361L203.847 26.9263L204.44 27.0465V25.9451C204.44 25.2985 204.37 24.6538 204.229 24.0226C204.1 23.4073 203.839 22.8268 203.465 22.3205C203.07 21.8074 202.552 21.4012 201.959 21.139C201.171 20.8101 200.321 20.6564 199.467 20.6884C198.319 20.6732 197.172 20.7671 196.042 20.9687C195.295 21.0874 194.561 21.2785 193.852 21.5395L193.379 18.2753C194.203 17.9615 195.059 17.7399 195.931 17.6145C197.182 17.4036 198.449 17.2997 199.718 17.3041ZM200.06 37.0693C200.994 37.0693 201.818 37.0693 202.541 36.9992C203.149 36.9726 203.754 36.8956 204.349 36.7689V30.2005C203.91 30.0173 203.447 29.896 202.973 29.8401C202.205 29.7314 201.429 29.6812 200.653 29.6899C200.021 29.6908 199.39 29.7342 198.764 29.82C198.125 29.8917 197.504 30.0712 196.926 30.3507C196.386 30.6047 195.915 30.9821 195.549 31.4521C195.158 31.9844 194.962 32.6352 194.997 33.2945C194.936 33.8614 195.03 34.4343 195.268 34.9525C195.507 35.4706 195.882 35.9149 196.353 36.2382C197.502 36.8523 198.798 37.1398 200.1 37.0693H200.06Z" fill="#0062BE"></path>
  </g>
  <defs>
    <clipPath id="clip0_660_896">
      <rect width="208.158" height="47.0031" fill="white"></rect>
    </clipPath>
  </defs>
</svg>
