<?xml version="1.0" encoding="utf-8"?>
<!-- Generator: Adobe Illustrator 27.0.0, SVG Export Plug-In . SVG Version: 6.00 Build 0)  -->
<svg version="1.1" id="Capa_1" xmlns="http://www.w3.org/2000/svg" xmlns:xlink="http://www.w3.org/1999/xlink" x="0px" y="0px"
	 viewBox="0 0 31.9 32" style="enable-background:new 0 0 31.9 32;" xml:space="preserve">
<style type="text/css">
	.st0{fill-rule:evenodd;clip-rule:evenodd;fill:#FF8C00;}
	.st1{fill:#0062BE;}
</style>
<g>
	<path class="st0" d="M4.2,26.7c1.6,1.7,3.6,3.1,5.8,4c2.2,0.9,4.6,1.3,6.9,1.1c2.4-0.1,4.7-0.8,6.7-1.9c2.1-1.1,3.9-2.7,5.3-4.6
		c1.4-1.9,2.3-4.1,2.7-6.4c0.4-2.3,0.3-4.7-0.3-7c-0.6-2.3-1.7-4.4-3.3-6.2c-1.5-1.8-3.5-3.2-5.6-4.2C14.7,7.6,7.7,15.9,4.2,26.7z"
		/>
	<path class="st1" d="M15.9,0.1c-3.1,0-6,0.9-8.6,2.5c-2.6,1.6-4.6,4-5.9,6.8c-1.3,2.8-1.7,5.8-1.3,8.9c0.4,3,1.7,5.8,3.7,8.1
		C5.6,16.6,10,7.5,16.8,0.1C16.5,0.1,16.2,0.1,15.9,0.1z"/>
</g>
</svg>
