<?xml version="1.0" encoding="utf-8"?>
<!-- Generator: Adobe Illustrator 27.0.0, SVG Export Plug-In . SVG Version: 6.00 Build 0)  -->
<svg version="1.1" id="Capa_1" xmlns="http://www.w3.org/2000/svg" xmlns:xlink="http://www.w3.org/1999/xlink" x="0px" y="0px"
	 viewBox="0 0 31.9 32" style="enable-background:new 0 0 31.9 32;" xml:space="preserve">
<style type="text/css">
	.st0{fill:#FF6110;}
	.st1{fill:#00243C;}
	.st2{clip-path:url(#SVGID_00000181049683368930334300000003308495832709592707_);}
	.st3{fill:#FFFFFF;}
	.st4{clip-path:url(#SVGID_00000181049683368930334300000003308495832709592707_);fill:#FF6110;}
	.st5{fill:#00B3F3;}
</style>
<g>
	<g>
		<path class="st0" d="M24.9,17.9H9V8.6c0-1.2,1-2.1,2.1-2.1h11.6c1.2,0,2.1,1,2.1,2.1V17.9z"/>
		<path class="st1" d="M20.2,7.5L20.2,7.5c-0.2,0-0.4-0.2-0.4-0.4v-2c0-1.5-1.2-2.9-2.7-3C15.4,2,14,3.3,14,5v2.1
			c0,0.2-0.2,0.4-0.4,0.4l0,0c-0.2,0-0.4-0.2-0.4-0.4v-2c0-1.9,1.4-3.6,3.3-3.8c2.2-0.2,4.1,1.5,4.1,3.7v2.1
			C20.6,7.3,20.4,7.5,20.2,7.5z"/>
	</g>
	<g>
		<defs>
			<polygon id="SVGID_1_" points="7.1,19.6 13.8,12.4 20.4,19.1 26.3,12.4 26.3,31.6 7.1,31.6 			"/>
		</defs>
		<clipPath id="SVGID_00000050632726928337853190000015634723070035660453_">
			<use xlink:href="#SVGID_1_"  style="overflow:visible;"/>
		</clipPath>
		<g style="clip-path:url(#SVGID_00000050632726928337853190000015634723070035660453_);">
			<path class="st1" d="M22.7,30.4H11.1c-1.2,0-2.1-1-2.1-2.1V3.5c0-1.2,1-2.1,2.1-2.1h11.6c1.2,0,2.1,1,2.1,2.1v24.8
				C24.9,29.4,23.9,30.4,22.7,30.4z"/>
			<path class="st3" d="M18.8,3.3H15c-0.2,0-0.4-0.2-0.4-0.4l0,0c0-0.2,0.2-0.4,0.4-0.4h3.8c0.2,0,0.4,0.2,0.4,0.4l0,0
				C19.2,3.1,19.1,3.3,18.8,3.3z"/>
			<rect x="10.1" y="4.4" class="st3" width="13.8" height="22.9"/>
		</g>
		<path style="clip-path:url(#SVGID_00000050632726928337853190000015634723070035660453_);fill:#FF6110;" d="M17.6,28.6l-0.4-0.4
			c-0.1-0.1-0.4-0.1-0.5,0l-0.4,0.4c-0.1,0.1-0.1,0.4,0,0.5l0.4,0.4c0.1,0.1,0.4,0.1,0.5,0l0.4-0.4C17.7,29,17.7,28.7,17.6,28.6z"/>
	</g>
	<g>
		<path class="st3" d="M7.4,21.5c-0.7,0-1.3-0.3-1.8-0.8c-0.4-0.5-0.6-1.2-0.5-1.9C5.3,17.8,6,17,7,16.8c0.2,0,0.3,0,0.5,0
			c0.2,0,0.3,0,0.5,0l3.6-3.7c0-0.2-0.1-0.4-0.1-0.6c0-1.3,1.1-2.4,2.4-2.4c0.1,0,0.2,0,0.2,0c1,0.1,1.9,0.9,2.1,1.9
			c0.1,0.3,0.1,0.7,0,1c0.9,0.9,2.4,2.5,3.6,3.7c0.2,0,0.3-0.1,0.5-0.1c0.2,0,0.3,0,0.5,0.1c1.1-1.2,2.7-2.8,3.6-3.7
			c-0.1-0.3-0.1-0.6,0-1c0.2-1,1-1.8,1.9-1.9c0.1,0,0.3,0,0.4,0c0.7,0,1.3,0.3,1.8,0.8c0.4,0.5,0.6,1.2,0.5,1.9
			c-0.1,1-0.9,1.8-1.9,1.9c-0.1,0-0.3,0-0.4,0c-0.2,0-0.3,0-0.5-0.1c-0.5,0.5-1.1,1.2-1.8,1.8c-0.6,0.7-1.3,1.3-1.8,1.9
			c0,0.2,0.1,0.4,0.1,0.6c0,1.3-1.1,2.4-2.4,2.4c-0.1,0-0.2,0-0.3,0c-1-0.1-1.9-0.9-2.1-1.9c-0.1-0.3,0-0.7,0-1
			c-0.5-0.5-1.2-1.2-1.8-1.9c-0.6-0.6-1.2-1.3-1.8-1.8c-0.2,0-0.3,0.1-0.5,0.1c-0.2,0-0.3,0-0.5-0.1l-3.6,3.7c0.1,0.3,0.1,0.6,0,1
			c-0.2,1-0.9,1.8-1.9,1.9C7.7,21.5,7.6,21.5,7.4,21.5z"/>
		<path class="st5" d="M24.8,12.3c0,0.2,0,0.5,0,0.7c0.1,0.2,0,0.4-0.1,0.6c-1.3,1.3-2.7,2.8-3.6,3.8c-0.2,0.2-0.4,0.2-0.6,0.2
			c-0.1,0-0.2,0-0.4,0c-0.1,0-0.3,0-0.4,0c-0.2,0.1-0.4,0-0.6-0.2c-1-1-2.4-2.4-3.6-3.8c-0.2-0.2-0.2-0.4-0.1-0.6
			c0.1-0.2,0.1-0.5,0-0.7c-0.1-0.7-0.7-1.3-1.4-1.3c-1-0.1-1.8,0.7-1.8,1.6c0,0.2,0,0.3,0.1,0.4c0.1,0.2,0,0.4-0.2,0.6l-3.7,3.7
			c-0.1,0.2-0.4,0.2-0.6,0.2c-0.2-0.1-0.4-0.1-0.7,0c-0.7,0.1-1.2,0.7-1.3,1.3c-0.2,1.1,0.8,2,1.9,1.9c0.7-0.1,1.2-0.7,1.3-1.3
			c0-0.2,0-0.5,0-0.7c-0.1-0.2,0-0.4,0.1-0.6l3.7-3.8c0.2-0.2,0.4-0.2,0.6-0.2c0.1,0,0.2,0,0.4,0c0.1,0,0.3,0,0.4,0
			c0.2-0.1,0.4,0,0.6,0.2c0.5,0.6,1.2,1.2,1.8,1.9c0.6,0.7,1.3,1.3,1.8,1.9c0.2,0.2,0.2,0.4,0.1,0.6c-0.1,0.2-0.1,0.5,0,0.7
			c0.1,0.7,0.7,1.3,1.4,1.3c1,0.1,1.8-0.7,1.8-1.6c0-0.1,0-0.3-0.1-0.4c-0.1-0.2,0-0.4,0.1-0.6c0.5-0.6,1.2-1.2,1.8-1.9
			c0.6-0.7,1.3-1.3,1.8-1.9c0.1-0.2,0.4-0.2,0.6-0.2c0.2,0.1,0.5,0.1,0.7,0c0.7-0.1,1.2-0.7,1.3-1.3c0.2-1.1-0.8-2-1.9-1.9
			C25.5,11.1,25,11.6,24.8,12.3z"/>
	</g>
</g>
</svg>
